<svg width="630" height="630" viewBox="0 0 630 630" fill="none" xmlns="http://www.w3.org/2000/svg">
<g clip-path="url(#clip0)">
<path d="M507 0H123C55.069 0 0 55.069 0 123V507C0 574.931 55.069 630 123 630H507C574.931 630 630 574.931 630 507V123C630 55.069 574.931 0 507 0Z" fill="white"/>
<path d="M347 316.8C399 320.8 437.2 332.8 461.6 352.8C486 372.8 498.2 396.4 498.2 423.6C498.2 460.8 483.6 489.6 454.4 510C425.2 530 384.6 540 332.6 540C321 540 311.2 539.8 303.2 539.4C276.8 538.6 251 538.2 225.8 538.2C184.6 538.2 153.8 538.8 133.4 540V528C146.6 527.2 156.2 525.6 162.2 523.2C168.6 520.8 172.8 516.2 174.8 509.4C177.2 502.6 178.4 491.6 178.4 476.4V178.8C178.4 163.6 177.2 152.6 174.8 145.8C172.8 139 168.6 134.4 162.2 132C156.2 129.6 146.6 128 133.4 127.2V115.2C153.8 116.4 184.2 117 224.6 117L291.2 116.4C299.2 116 308.4 115.8 318.8 115.8C366.8 115.8 403.4 124.4 428.6 141.6C454.2 158.8 467 181.6 467 210C467 233.2 456.8 254.8 436.4 274.8C416.4 294.8 386.6 308.4 347 315.6V316.8ZM311 127.2C300.2 127.2 292.2 128.6 287 131.4C282.2 134.2 278.8 139.2 276.8 146.4C274.8 153.6 273.8 164.4 273.8 178.8V314.4H299.6C325.6 314.4 343.8 305.6 354.2 288C364.6 270 369.8 246.2 369.8 216.6C369.8 186.6 365 164.2 355.4 149.4C346.2 134.6 331.4 127.2 311 127.2ZM315.2 526.2C370.8 526.2 398.6 491.2 398.6 421.2C398.6 389.6 390.6 365.6 374.6 349.2C358.6 332.8 333.4 324.6 299 324.6H273.8V476.4C273.8 490.8 274.8 501.4 276.8 508.2C278.8 515 282.6 519.8 288.2 522.6C294.2 525 303.2 526.2 315.2 526.2Z" fill="black"/>
</g>
<defs>
<clipPath id="clip0">
<rect width="630" height="630" fill="white"/>
</clipPath>
</defs>
</svg>
